<svg width="41" height="40" viewBox="0 0 41 40" fill="none" xmlns="http://www.w3.org/2000/svg">
<g clip-path="url(#clip0_754_135)">
<path d="M21.042 14.1539H13.65C13.32 14.1539 13.05 13.8769 13.05 13.5385C13.05 13.2 13.32 12.9231 13.65 12.9231H21.042C21.372 12.9231 21.642 13.2 21.642 13.5385C21.642 13.8769 21.372 14.1539 21.042 14.1539Z" fill="#21707B"/>
<path d="M22.626 22.7693H19.068C19.188 23.1693 19.272 23.5816 19.308 24.0001H22.62C22.95 24.0001 23.22 23.7231 23.22 23.3847C23.22 23.0462 22.95 22.7693 22.62 22.7693H22.626Z" fill="#21707B"/>
<path d="M26.85 17.8462H13.65C13.32 17.8462 13.05 18.1232 13.05 18.4616C14.052 18.4124 15.054 18.6155 15.972 19.0709H26.844C27.174 19.0709 27.444 18.7939 27.444 18.4555C27.444 18.117 27.174 17.8401 26.844 17.8401L26.85 17.8462Z" fill="#21707B"/>
<path d="M13.3501 29.8339C12.0421 29.8339 10.7401 29.3231 9.74414 28.3015C7.75814 26.2646 7.75814 22.9415 9.74414 20.9046C10.7101 19.9139 11.9881 19.3723 13.3501 19.3723C14.7121 19.3723 15.9961 19.9139 16.9561 20.9046C18.9421 22.9415 18.9421 26.2646 16.9561 28.3015C15.9601 29.3231 14.6581 29.8339 13.3501 29.8339ZM13.3501 20.6031C12.3061 20.6031 11.3281 21.0215 10.5901 21.7723C9.07214 23.3292 9.07214 25.8708 10.5901 27.4277C12.1141 28.9846 14.5861 28.9846 16.1041 27.4277C17.6221 25.8708 17.6221 23.3292 16.1041 21.7723C15.3661 21.0154 14.3881 20.6031 13.3441 20.6031H13.3501Z" fill="#21707B"/>
<path d="M19.89 32C19.734 32 19.584 31.9385 19.464 31.8215L16.068 28.3385C15.834 28.0985 15.834 27.7108 16.068 27.4708C16.302 27.2308 16.68 27.2308 16.914 27.4708L20.31 30.9538C20.544 31.1938 20.544 31.5815 20.31 31.8215C20.19 31.9446 20.04 32 19.884 32H19.89Z" fill="#21707B"/>
<path d="M29.85 8H10.65C9.324 8 8.25 9.10154 8.25 10.4615V21.3723C8.49 20.9723 8.772 20.5969 9.108 20.2523C9.216 20.1415 9.336 20.0369 9.45 19.9323V10.4615C9.45 9.78462 9.99 9.23077 10.65 9.23077H29.85C30.51 9.23077 31.05 9.78462 31.05 10.4615V26.4615C31.05 27.1385 30.51 27.6923 29.85 27.6923H18.528C18.528 27.6923 18.504 27.7415 18.486 27.7723L19.608 28.9231H29.844C31.17 28.9231 32.244 27.8215 32.244 26.4615V10.4615C32.244 9.10154 31.17 8 29.844 8H29.85Z" fill="#21707B"/>
</g>
<defs>
<clipPath id="clip0_754_135">
<rect width="24" height="24" fill="white" transform="translate(8.25 8)"/>
</clipPath>
</defs>
</svg>
