<svg width="40" height="40" viewBox="0 0 40 40" fill="none" xmlns="http://www.w3.org/2000/svg">
<g clip-path="url(#clip0_170_278)">
<path d="M19.9761 30.3997L17.3499 27.6552C17.9721 26.7487 18.3131 25.6672 18.3131 24.5294C18.3131 23.0915 17.7747 21.7412 16.8056 20.7221C15.8305 19.7031 14.5384 19.1467 13.1625 19.1467C11.7866 19.1467 10.4945 19.7094 9.51944 20.7221C8.54437 21.7412 8.01196 23.0915 8.01196 24.5294C8.01196 25.9673 8.55035 27.3176 9.51944 28.3366C10.4945 29.3556 11.7866 29.912 13.1625 29.912C14.2213 29.912 15.2263 29.5807 16.0758 28.968L18.7139 31.725C18.8873 31.9063 19.1206 32.0001 19.348 32.0001C19.5753 32.0001 19.8086 31.9063 19.9821 31.725C20.335 31.3562 20.335 30.7623 19.9821 30.3997H19.9761ZM10.7757 27.0113C10.1416 26.3486 9.79461 25.4671 9.79461 24.5294C9.79461 23.5916 10.1416 22.7102 10.7757 22.0475C11.4098 21.3848 12.2532 21.0222 13.1505 21.0222C14.0479 21.0222 14.8913 21.3848 15.5254 22.0475C16.1595 22.7102 16.5065 23.5916 16.5065 24.5294C16.5065 25.4671 16.1595 26.3486 15.5254 27.0113C14.8913 27.6739 14.0479 28.0365 13.1505 28.0365C12.2532 28.0365 11.4098 27.6739 10.7757 27.0113Z" fill="#37B7C4"/>
<path d="M30.2054 8H9.86639C8.87337 8 8.07178 8.83772 8.07178 9.87549V20.5033C8.20936 20.3345 8.35293 20.1657 8.50249 20.0031C9.69291 18.7591 11.2243 18.1026 12.7797 18.0089C12.9472 17.8151 13.1805 17.6838 13.4496 17.6838H26.6102C27.1067 17.6838 27.5075 18.1026 27.5075 18.6215C27.5075 19.1404 27.1067 19.5593 26.6102 19.5593H17.332C17.4935 19.6968 17.655 19.8406 17.8046 19.9969C18.5523 20.7783 19.0608 21.7036 19.3719 22.6851H22.4227C22.9192 22.6851 23.32 23.1039 23.32 23.6228C23.32 24.1417 22.9192 24.5606 22.4227 24.5606H19.7009C19.7487 25.7296 19.5334 26.9049 19.013 27.9677L20.2393 29.2493H30.1994C31.1924 29.2493 31.994 28.4116 31.994 27.3738V9.87549C31.994 8.83772 31.1924 8 30.1994 8H30.2054ZM20.6341 14.5642H13.4556C12.9591 14.5642 12.5583 14.1454 12.5583 13.6265C12.5583 13.1076 12.9591 12.6887 13.4556 12.6887H20.6341C21.1306 12.6887 21.5314 13.1076 21.5314 13.6265C21.5314 14.1454 21.1306 14.5642 20.6341 14.5642Z" fill="#37B7C4"/>
</g>
<defs>
<clipPath id="clip0_170_278">
<rect width="24" height="24" fill="white" transform="translate(8 8)"/>
</clipPath>
</defs>
</svg>
