<svg width="40" height="40" viewBox="0 0 40 40" fill="none" xmlns="http://www.w3.org/2000/svg">
<g clip-path="url(#clip0_170_325)">
<path d="M29.6 10.1266H27.2V8.91139C27.2 8.40709 26.798 8 26.3 8C25.802 8 25.4 8.40709 25.4 8.91139V10.1266H14.6V8.91139C14.6 8.40709 14.198 8 13.7 8C13.202 8 12.8 8.40709 12.8 8.91139V10.1266H10.4C9.728 10.1266 9.08 10.4182 8.624 10.9225C8.222 11.3722 8 11.9494 8 12.557V16.2025C8 16.5367 8.27 16.8101 8.6 16.8101H31.4C31.73 16.8101 32 16.5367 32 16.2025V12.557C32 11.2142 30.926 10.1266 29.6 10.1266Z" fill="#37B7C4"/>
<path d="M31.4 18.0254H8.6C8.27 18.0254 8 18.2988 8 18.633V29.6547C8 30.9489 9.074 32 10.4 32H29.6C30.272 32 30.914 31.7206 31.364 31.2406C31.772 30.8092 31.994 30.2441 31.994 29.6487V18.6269C31.994 18.2927 31.724 18.0193 31.394 18.0193L31.4 18.0254Z" fill="#37B7C4"/>
</g>
<defs>
<clipPath id="clip0_170_325">
<rect width="24" height="24" fill="white" transform="translate(8 8)"/>
</clipPath>
</defs>
</svg>
