<svg width="41" height="40" viewBox="0 0 41 40" fill="none" xmlns="http://www.w3.org/2000/svg">
<g clip-path="url(#clip0_754_151)">
<path d="M30.35 32H11.15C9.824 32 8.75 30.9261 8.75 29.6V12.2C8.75 10.874 9.824 9.80005 11.15 9.80005H30.35C31.676 9.80005 32.75 10.874 32.75 12.2V29.6C32.75 30.9261 31.676 32 30.35 32ZM11.15 11C10.49 11 9.95 11.54 9.95 12.2V29.6C9.95 30.26 10.49 30.8 11.15 30.8H30.35C31.01 30.8 31.55 30.26 31.55 29.6V12.2C31.55 11.54 31.01 11 30.35 11H11.15Z" fill="#21707B"/>
<path d="M32.15 17.5999H9.35C9.02 17.5999 8.75 17.3299 8.75 16.9999C8.75 16.6699 9.02 16.3999 9.35 16.3999H32.15C32.48 16.3999 32.75 16.6699 32.75 16.9999C32.75 17.3299 32.48 17.5999 32.15 17.5999Z" fill="#21707B"/>
<path d="M14.45 12.8C14.12 12.8 13.85 12.53 13.85 12.2V8.6C13.85 8.27 14.12 8 14.45 8C14.78 8 15.05 8.27 15.05 8.6V12.2C15.05 12.53 14.78 12.8 14.45 12.8Z" fill="#21707B"/>
<path d="M27.05 12.8C26.72 12.8 26.45 12.53 26.45 12.2V8.6C26.45 8.27 26.72 8 27.05 8C27.38 8 27.65 8.27 27.65 8.6V12.2C27.65 12.53 27.38 12.8 27.05 12.8Z" fill="#21707B"/>
</g>
<defs>
<clipPath id="clip0_754_151">
<rect width="24" height="24" fill="white" transform="translate(8.75 8)"/>
</clipPath>
</defs>
</svg>
