<svg width="151" height="63" viewBox="0 0 151 63" fill="none" xmlns="http://www.w3.org/2000/svg">
<g clip-path="url(#clip0_1205_2521)">
<path d="M69.6689 22.3525C70.1958 22.3527 70.6211 22.7611 70.6211 23.2666V25.752C70.6208 26.2572 70.1956 26.6648 69.6689 26.665H63.3242C61.9258 26.6651 60.9249 27.7194 60.9248 29.1895C60.9248 30.6596 61.9217 31.749 63.3242 31.749C64.7268 31.749 65.7568 30.6596 65.7568 29.1895V28.6377C65.7528 28.1322 66.1821 27.7199 66.709 27.7197H70.208V27.7236C70.6619 27.7238 71.0594 28.0313 71.1445 28.4629C71.1931 28.7116 71.2207 28.968 71.2207 29.1934C71.2207 33.1916 67.9212 36.0039 63.3242 36.0039C58.7273 36.0039 55.46 33.3822 55.46 29.1934C55.4601 25.0047 58.5247 22.3526 63.3242 22.3525H69.6689ZM69.6689 0.544922C70.1958 0.545101 70.6211 0.953478 70.6211 1.45898V12.917C70.6211 15.5381 71.1527 16.5918 72.6201 16.5918H93.8662C98.1509 16.5918 101.102 16.2573 103.02 15.9072L100.404 14.9473L104.069 14.0059L104.268 10.373L106.335 13.4219L109.987 12.4844L107.612 15.2969L109.68 18.3457L106.137 17.043L103.749 19.8711L103.936 16.4561C100.255 18.7741 95.5032 21.0879 89.6211 21.0879V23.1025H92.8887C94.5871 23.1025 95.787 24.0595 95.7871 25.5957V32.8027C95.7871 33.3083 95.3618 33.7167 94.835 33.7168H91.2109C90.6839 33.7168 90.2578 33.3084 90.2578 32.8027V27.6104H78.6475C78.1206 27.6102 77.6953 27.2018 77.6953 26.6963V24.0205C77.6954 23.5151 78.1207 23.1066 78.6475 23.1064H84.0918V21.0918H72.3242C69.1219 21.0918 66.7909 19.9409 65.7246 17.417H60.6123C60.0855 17.417 59.6603 17.0084 59.6602 16.5029V14.1143C59.6603 13.6088 60.0854 13.2002 60.6123 13.2002H65.0918V10.7695H60.6123C60.0853 10.7695 59.6602 10.3611 59.6602 9.85547V7.46777C59.6602 6.96218 60.0853 6.55375 60.6123 6.55371H65.0918V1.45898C65.0918 0.953366 65.5179 0.544922 66.0449 0.544922H69.6689ZM57.0771 6.55371C57.6041 6.55371 58.0303 6.96216 58.0303 7.46777L58.0264 7.45996V11.4697C58.0264 17.4166 53.4609 21.0918 46.2979 21.0918H41.9531C41.4261 21.0918 41 20.6834 41 20.1777V17.502C41.0001 16.9964 41.4262 16.5879 41.9531 16.5879H45.9941C50.2628 16.5879 52.46 14.8613 52.46 11.4736V11.0889H44.9521C44.4254 11.0887 44.0001 10.6802 44 10.1748V7.46777C44 6.96226 44.4253 6.55388 44.9521 6.55371H57.0771ZM88.7129 0C89.2358 0 89.6582 0.404521 89.6582 0.90625V2.81543H95.2031C95.73 2.81543 96.156 3.22406 96.1562 3.72949V6.375C96.1561 6.88047 95.73 7.28906 95.2031 7.28906H89.7266C89.8525 9.12074 92.2201 10.4041 95.7588 10.5908C96.2615 10.6142 96.6592 11.0148 96.6592 11.501V14.1104C96.6592 14.6392 96.1928 15.0593 95.6416 15.0283C91.9283 14.8222 88.3933 13.5268 86.9258 11.8271C85.4259 13.589 81.822 14.9198 78.0439 15.126L78.0479 15.1182C77.4966 15.1493 77.0303 14.7291 77.0303 14.2002V11.5596C77.0303 11.0773 77.428 10.6766 77.9307 10.6494C81.5381 10.4627 83.9738 9.14788 84.0957 7.28516H78.4854C77.9586 7.28503 77.5334 6.87649 77.5332 6.37109V3.72559C77.5334 3.22024 77.9586 2.81262 78.4854 2.8125H84.1611V0.90625C84.1611 0.404522 84.5825 6.58842e-07 85.1055 0H88.7129ZM110 12.4814L109.987 12.4844L110 12.4697V12.4814Z" fill="#D1D5DB"/>
</g>
<path d="M8.56641 50.543V53.9766H10.1367V54.75H8.56641V58.3477H7.65234V50.543H8.56641ZM6.65625 51.8203V52.5703H0.445312V51.8203H3.09375V50.543H4.00781V51.8203H6.65625ZM3.55078 53.1445C5.03906 53.1445 6.04688 53.9062 6.05859 55.0898C6.04688 56.2617 5.03906 57.0117 3.55078 57.0117C2.05078 57.0117 1.03125 56.2617 1.04297 55.0898C1.03125 53.9062 2.05078 53.1445 3.55078 53.1445ZM3.55078 53.8711C2.56641 53.8711 1.91016 54.3516 1.92188 55.0898C1.91016 55.8281 2.56641 56.2969 3.55078 56.2852C4.52344 56.2969 5.17969 55.8281 5.19141 55.0898C5.17969 54.3516 4.52344 53.8711 3.55078 53.8711ZM9.04688 59.9531V60.7266H2.05078V57.7266H2.95312V59.9531H9.04688ZM19.2188 53.707V54.457H12.1055V50.9297H13.0195V53.707H19.2188ZM20.2969 55.6875V56.4492H16.0781V58.6055H15.1641V56.4492H10.793V55.6875H20.2969ZM19.2891 59.9531V60.7266H12.0117V57.6797H12.9258V59.9531H19.2891ZM30.0938 50.5312V60.9492H29.2031V50.5312H30.0938ZM27.9961 50.7539V60.4219H27.1172V55.3594H25.7812C25.6816 57.3867 24.8203 58.6523 23.5312 58.6523C22.1719 58.6523 21.293 57.2461 21.293 55.0312C21.293 52.8164 22.1719 51.4102 23.5312 51.4102C24.7969 51.4102 25.6523 52.6348 25.7695 54.5977H27.1172V50.7539H27.9961ZM23.5312 52.2773C22.6875 52.2773 22.1484 53.332 22.1602 55.0312C22.1484 56.7188 22.6875 57.7852 23.5312 57.7734C24.375 57.7852 24.9141 56.7188 24.9141 55.0312C24.9141 53.332 24.375 52.2773 23.5312 52.2773ZM44.0859 58.8516V59.6133H34.5469V58.8516H38.8359V56.6016H35.6719V51.2695H36.5977V53.1562H42.0117V51.2695H42.9141V56.6016H39.7383V58.8516H44.0859ZM36.5977 55.8516H42.0117V53.9062H36.5977V55.8516ZM53.3438 53.6953V54.4336H46.207V50.918H47.1211V53.6953H53.3438ZM54.4453 55.8516V56.6016H44.9062V55.8516H54.4453ZM53.4023 59.9297V60.6914H46.1484V57.668H47.0625V59.9297H53.4023ZM67.1836 50.4258V56.5664H65.6953V55.5234H63.293V54.3281H65.6953V53.3086H63.3984C62.7363 54.9961 61.2246 56.1562 58.875 56.8008L58.2891 55.6172C60.7441 54.9727 61.9453 53.8008 62.1562 52.3359H58.8633V51.1406H63.7852C63.7852 51.4863 63.7617 51.8203 63.7148 52.1367H65.6953V50.4258H67.1836ZM63.6328 56.6953C65.8008 56.6953 67.2539 57.5273 67.2656 58.8516C67.2539 60.1875 65.8008 61.0312 63.6328 61.0312C61.4414 61.0312 59.9766 60.1875 59.9883 58.8516C59.9766 57.5273 61.4414 56.6953 63.6328 56.6953ZM63.6328 57.8672C62.2852 57.8555 61.4766 58.1953 61.4766 58.8516C61.4766 59.5078 62.2852 59.8477 63.6328 59.8477C64.957 59.8477 65.7656 59.5078 65.7656 58.8516C65.7656 58.1953 64.957 57.8555 63.6328 57.8672ZM77.5312 50.4141V61.0781H76.0195V50.4141H77.5312ZM74.332 51.5273C74.332 54.7617 73.1953 57.4453 69.3867 59.25L68.6016 58.0547C71.3555 56.7539 72.5684 55.0664 72.8086 52.6992H69.1758V51.5273H74.332ZM87.6328 55.1836V56.3672H84.5391V58.6406H88.6992V59.8594H78.9375V58.6406H83.0508V56.3672H80.0859V51.1641H87.5508V52.3594H81.5859V55.1836H87.6328ZM92.7656 51.1289C94.4531 51.1172 95.7188 52.2188 95.7188 53.7422C95.7188 55.2773 94.4531 56.3672 92.7656 56.3672C91.0781 56.3672 89.8008 55.2773 89.8008 53.7422C89.8008 52.2188 91.0781 51.1172 92.7656 51.1289ZM92.7656 52.418C91.9219 52.418 91.2773 52.9102 91.2891 53.7422C91.2773 54.5859 91.9219 55.0664 92.7656 55.0664C93.6094 55.0664 94.2539 54.5859 94.2656 53.7422C94.2539 52.9102 93.6211 52.418 92.7656 52.418ZM98.2734 50.4141V61.1016H96.7852V50.4141H98.2734ZM89.3555 57.7031C91.2539 57.7148 93.8906 57.6797 96.1758 57.3633L96.293 58.4414C93.9258 58.8984 91.3945 58.9219 89.5312 58.9219L89.3555 57.7031ZM112.207 58.6055V59.8359H102.445V58.6055H106.559V56.4258H103.477V51.1992H111.117V56.4258H108.047V58.6055H112.207ZM104.953 52.3945V55.2539H109.641V52.3945H104.953ZM122.566 55.6758V56.8711H112.816V55.6758H122.566ZM121.5 53.6133V54.8086H114V50.8008H121.395V51.9961H115.488V53.6133H121.5ZM121.559 59.6836V60.8789H113.988V57.7031H115.465V59.6836H121.559ZM135.68 55.6641V56.8477H131.543V57.7734H134.496V61.0664H133.008V58.957H127.031V57.7734H130.066V56.8477H125.953V55.6641H135.68ZM131.543 50.4258V51.3867H134.742V52.5469H131.66C131.83 53.3145 132.914 54.0059 135.246 54.1641L134.789 55.2773C132.832 55.1426 131.473 54.5801 130.805 53.7188C130.131 54.5801 128.771 55.1426 126.82 55.2773L126.363 54.1641C128.684 54.0059 129.768 53.3145 129.949 52.5469H126.891V51.3867H130.066V50.4258H131.543ZM145.547 50.4141V61.0781H144.129V50.4141H145.547ZM143.367 50.5898V60.5859H141.961V55.2773H140.555V54.0703H141.961V50.5898H143.367ZM139.699 53.2734C139.699 55.043 140.25 56.8359 141.809 57.7266L140.93 58.8281C139.98 58.2656 139.354 57.3105 138.996 56.168C138.627 57.4102 137.982 58.4648 137.004 59.0625L136.102 57.9609C137.672 57 138.258 55.0781 138.258 53.2734V52.6992H136.512V51.5039H141.316V52.6992H139.699V53.2734ZM149.121 51.5156L148.969 57.457H147.469L147.316 51.5156H149.121ZM148.23 60.1055C147.68 60.1055 147.234 59.6602 147.246 59.1211C147.234 58.582 147.68 58.1484 148.23 58.1484C148.746 58.1484 149.203 58.582 149.203 59.1211C149.203 59.6602 148.746 60.1055 148.23 60.1055Z" fill="#D1D5DB"/>
<defs>
<clipPath id="clip0_1205_2521">
<rect width="69" height="36" fill="white" transform="translate(41)"/>
</clipPath>
</defs>
</svg>
