<svg width="40" height="40" viewBox="0 0 40 40" fill="none" xmlns="http://www.w3.org/2000/svg">
<g clip-path="url(#clip0_754_127)">
<path d="M29.972 32H23.918C22.802 32 21.89 31.082 21.89 29.948V22.934C21.89 22.868 21.842 22.808 21.776 22.808H18.212C18.152 22.808 18.098 22.862 18.098 22.934V29.948C18.098 31.076 17.192 32 16.07 32H10.028C8.912 32 8 31.082 8 29.948V16.79C8 15.842 8.474 14.966 9.26 14.45L18.524 8.43796C19.424 7.85596 20.582 7.85596 21.476 8.43796L30.74 14.456C31.532 14.966 32 15.842 32 16.796V29.954C32 31.082 31.094 32.006 29.972 32.006V32ZM18.218 21.608H21.782C22.508 21.608 23.096 22.202 23.096 22.934V29.948C23.096 30.416 23.468 30.8 23.924 30.8H29.978C30.434 30.8 30.806 30.416 30.806 29.948V16.79C30.806 16.25 30.536 15.752 30.092 15.458L20.822 9.44596C20.324 9.12196 19.676 9.12196 19.178 9.44596L9.914 15.458C9.464 15.746 9.2 16.244 9.2 16.79V29.948C9.2 30.416 9.572 30.8 10.028 30.8H16.082C16.538 30.8 16.91 30.416 16.91 29.948V22.934C16.91 22.202 17.498 21.608 18.224 21.608H18.218Z" fill="#21707B"/>
</g>
<defs>
<clipPath id="clip0_754_127">
<rect width="24" height="24" fill="white" transform="translate(8 8)"/>
</clipPath>
</defs>
</svg>
