<svg width="40" height="40" viewBox="0 0 40 40" fill="none" xmlns="http://www.w3.org/2000/svg">
<path d="M18.7907 8.36009L9.03826 14.6917C8.3901 15.1118 8 15.838 8 16.6242V30.4756C8 31.3218 8.67217 32 9.50038 32H15.874C16.7022 32 17.3743 31.3158 17.3743 30.4756V23.0938C17.3743 22.6737 17.7104 22.3316 18.1245 22.3316H21.8755C22.2896 22.3316 22.6257 22.6737 22.6257 23.0938V30.4756C22.6257 31.3218 23.2978 32 24.126 32H30.4996C31.3278 32 32 31.3158 32 30.4756V16.6242C32 15.844 31.6099 15.1118 30.9617 14.6917L21.2153 8.36009C20.4771 7.87997 19.5349 7.87997 18.7967 8.36009H18.7907Z" fill="#37B7C4"/>
</svg>
