<svg width="169" height="36" viewBox="0 0 169 36" fill="none" xmlns="http://www.w3.org/2000/svg">
<g clip-path="url(#clip0_155_128)">
<path d="M28.6689 22.3525C29.1958 22.3527 29.6211 22.7611 29.6211 23.2666V25.752C29.6208 26.2572 29.1956 26.6648 28.6689 26.665H22.3242C20.9258 26.6651 19.9249 27.7194 19.9248 29.1895C19.9248 30.6596 20.9217 31.749 22.3242 31.749C23.7268 31.749 24.7568 30.6596 24.7568 29.1895V28.6377C24.7528 28.1322 25.1821 27.7199 25.709 27.7197H29.208V27.7236C29.6619 27.7238 30.0594 28.0313 30.1445 28.4629C30.1931 28.7116 30.2207 28.968 30.2207 29.1934C30.2207 33.1916 26.9212 36.0039 22.3242 36.0039C17.7273 36.0039 14.46 33.3822 14.46 29.1934C14.4601 25.0047 17.5247 22.3526 22.3242 22.3525H28.6689ZM28.6689 0.544922C29.1958 0.545101 29.6211 0.953478 29.6211 1.45898V12.917C29.6211 15.5381 30.1527 16.5918 31.6201 16.5918H52.8662C57.1509 16.5918 60.1021 16.2573 62.0195 15.9072L59.4043 14.9473L63.0693 14.0059L63.2676 10.373L65.335 13.4219L68.9873 12.4844L66.6123 15.2969L68.6797 18.3457L65.1367 17.043L62.749 19.8711L62.9355 16.4561C59.2547 18.7741 54.5032 21.0879 48.6211 21.0879V23.1025H51.8887C53.5871 23.1025 54.787 24.0595 54.7871 25.5957V32.8027C54.7871 33.3083 54.3618 33.7167 53.835 33.7168H50.2109C49.6839 33.7168 49.2578 33.3084 49.2578 32.8027V27.6104H37.6475C37.1206 27.6102 36.6953 27.2018 36.6953 26.6963V24.0205C36.6954 23.5151 37.1207 23.1066 37.6475 23.1064H43.0918V21.0918H31.3242C28.1219 21.0918 25.7909 19.9409 24.7246 17.417H19.6123C19.0855 17.417 18.6603 17.0084 18.6602 16.5029V14.1143C18.6603 13.6088 19.0854 13.2002 19.6123 13.2002H24.0918V10.7695H19.6123C19.0853 10.7695 18.6602 10.3611 18.6602 9.85547V7.46777C18.6602 6.96218 19.0853 6.55375 19.6123 6.55371H24.0918V1.45898C24.0918 0.953366 24.5179 0.544922 25.0449 0.544922H28.6689ZM16.0771 6.55371C16.6041 6.55371 17.0303 6.96216 17.0303 7.46777L17.0264 7.45996V11.4697C17.0264 17.4166 12.4609 21.0918 5.29785 21.0918H0.953125C0.426129 21.0918 0 20.6834 0 20.1777V17.502C0.000118312 16.9964 0.426202 16.5879 0.953125 16.5879H4.99414C9.26281 16.5879 11.46 14.8613 11.46 11.4736V11.0889H3.95215C3.42537 11.0887 3.00012 10.6802 3 10.1748V7.46777C3 6.96226 3.4253 6.55388 3.95215 6.55371H16.0771ZM47.7129 0C48.2358 0 48.6582 0.404521 48.6582 0.90625V2.81543H54.2031C54.73 2.81543 55.156 3.22406 55.1562 3.72949V6.375C55.1561 6.88047 54.73 7.28906 54.2031 7.28906H48.7266C48.8525 9.12074 51.2201 10.4041 54.7588 10.5908C55.2615 10.6142 55.6592 11.0148 55.6592 11.501V14.1104C55.6592 14.6392 55.1928 15.0593 54.6416 15.0283C50.9283 14.8222 47.3933 13.5268 45.9258 11.8271C44.4259 13.589 40.822 14.9198 37.0439 15.126L37.0479 15.1182C36.4966 15.1493 36.0303 14.7291 36.0303 14.2002V11.5596C36.0303 11.0773 36.428 10.6766 36.9307 10.6494C40.5381 10.4627 42.9738 9.14788 43.0957 7.28516H37.4854C36.9586 7.28503 36.5334 6.87649 36.5332 6.37109V3.72559C36.5334 3.22024 36.9586 2.81262 37.4854 2.8125H43.1611V0.90625C43.1611 0.404522 43.5825 6.58842e-07 44.1055 0H47.7129ZM69 12.4814L68.9873 12.4844L69 12.4697V12.4814Z" fill="url(#paint0_linear_155_128)"/>
</g>
<path d="M84.5664 8.54297V11.9766H86.1367V12.75H84.5664V16.3477H83.6523V8.54297H84.5664ZM82.6562 9.82031V10.5703H76.4453V9.82031H79.0938V8.54297H80.0078V9.82031H82.6562ZM79.5508 11.1445C81.0391 11.1445 82.0469 11.9062 82.0586 13.0898C82.0469 14.2617 81.0391 15.0117 79.5508 15.0117C78.0508 15.0117 77.0312 14.2617 77.043 13.0898C77.0312 11.9062 78.0508 11.1445 79.5508 11.1445ZM79.5508 11.8711C78.5664 11.8711 77.9102 12.3516 77.9219 13.0898C77.9102 13.8281 78.5664 14.2969 79.5508 14.2852C80.5234 14.2969 81.1797 13.8281 81.1914 13.0898C81.1797 12.3516 80.5234 11.8711 79.5508 11.8711ZM85.0469 17.9531V18.7266H78.0508V15.7266H78.9531V17.9531H85.0469ZM95.2188 11.707V12.457H88.1055V8.92969H89.0195V11.707H95.2188ZM96.2969 13.6875V14.4492H92.0781V16.6055H91.1641V14.4492H86.793V13.6875H96.2969ZM95.2891 17.9531V18.7266H88.0117V15.6797H88.9258V17.9531H95.2891ZM106.094 8.53125V18.9492H105.203V8.53125H106.094ZM103.996 8.75391V18.4219H103.117V13.3594H101.781C101.682 15.3867 100.82 16.6523 99.5312 16.6523C98.1719 16.6523 97.293 15.2461 97.293 13.0312C97.293 10.8164 98.1719 9.41016 99.5312 9.41016C100.797 9.41016 101.652 10.6348 101.77 12.5977H103.117V8.75391H103.996ZM99.5312 10.2773C98.6875 10.2773 98.1484 11.332 98.1602 13.0312C98.1484 14.7188 98.6875 15.7852 99.5312 15.7734C100.375 15.7852 100.914 14.7188 100.914 13.0312C100.914 11.332 100.375 10.2773 99.5312 10.2773ZM120.086 16.8516V17.6133H110.547V16.8516H114.836V14.6016H111.672V9.26953H112.598V11.1562H118.012V9.26953H118.914V14.6016H115.738V16.8516H120.086ZM112.598 13.8516H118.012V11.9062H112.598V13.8516ZM129.344 11.6953V12.4336H122.207V8.91797H123.121V11.6953H129.344ZM130.445 13.8516V14.6016H120.906V13.8516H130.445ZM129.402 17.9297V18.6914H122.148V15.668H123.062V17.9297H129.402ZM85.3047 23.4258V29.5664H83.8164V28.5234H81.4141V27.3281H83.8164V26.3086H81.5195C80.8574 27.9961 79.3457 29.1562 76.9961 29.8008L76.4102 28.6172C78.8652 27.9727 80.0664 26.8008 80.2773 25.3359H76.9844V24.1406H81.9062C81.9062 24.4863 81.8828 24.8203 81.8359 25.1367H83.8164V23.4258H85.3047ZM81.7539 29.6953C83.9219 29.6953 85.375 30.5273 85.3867 31.8516C85.375 33.1875 83.9219 34.0312 81.7539 34.0312C79.5625 34.0312 78.0977 33.1875 78.1094 31.8516C78.0977 30.5273 79.5625 29.6953 81.7539 29.6953ZM81.7539 30.8672C80.4062 30.8555 79.5977 31.1953 79.5977 31.8516C79.5977 32.5078 80.4062 32.8477 81.7539 32.8477C83.0781 32.8477 83.8867 32.5078 83.8867 31.8516C83.8867 31.1953 83.0781 30.8555 81.7539 30.8672ZM95.6523 23.4141V34.0781H94.1406V23.4141H95.6523ZM92.4531 24.5273C92.4531 27.7617 91.3164 30.4453 87.5078 32.25L86.7227 31.0547C89.4766 29.7539 90.6895 28.0664 90.9297 25.6992H87.2969V24.5273H92.4531ZM105.754 28.1836V29.3672H102.66V31.6406H106.82V32.8594H97.0586V31.6406H101.172V29.3672H98.207V24.1641H105.672V25.3594H99.707V28.1836H105.754ZM110.887 24.1289C112.574 24.1172 113.84 25.2188 113.84 26.7422C113.84 28.2773 112.574 29.3672 110.887 29.3672C109.199 29.3672 107.922 28.2773 107.922 26.7422C107.922 25.2188 109.199 24.1172 110.887 24.1289ZM110.887 25.418C110.043 25.418 109.398 25.9102 109.41 26.7422C109.398 27.5859 110.043 28.0664 110.887 28.0664C111.73 28.0664 112.375 27.5859 112.387 26.7422C112.375 25.9102 111.742 25.418 110.887 25.418ZM116.395 23.4141V34.1016H114.906V23.4141H116.395ZM107.477 30.7031C109.375 30.7148 112.012 30.6797 114.297 30.3633L114.414 31.4414C112.047 31.8984 109.516 31.9219 107.652 31.9219L107.477 30.7031ZM130.328 31.6055V32.8359H120.566V31.6055H124.68V29.4258H121.598V24.1992H129.238V29.4258H126.168V31.6055H130.328ZM123.074 25.3945V28.2539H127.762V25.3945H123.074ZM140.688 28.6758V29.8711H130.938V28.6758H140.688ZM139.621 26.6133V27.8086H132.121V23.8008H139.516V24.9961H133.609V26.6133H139.621ZM139.68 32.6836V33.8789H132.109V30.7031H133.586V32.6836H139.68ZM153.801 28.6641V29.8477H149.664V30.7734H152.617V34.0664H151.129V31.957H145.152V30.7734H148.188V29.8477H144.074V28.6641H153.801ZM149.664 23.4258V24.3867H152.863V25.5469H149.781C149.951 26.3145 151.035 27.0059 153.367 27.1641L152.91 28.2773C150.953 28.1426 149.594 27.5801 148.926 26.7188C148.252 27.5801 146.893 28.1426 144.941 28.2773L144.484 27.1641C146.805 27.0059 147.889 26.3145 148.07 25.5469H145.012V24.3867H148.188V23.4258H149.664ZM163.668 23.4141V34.0781H162.25V23.4141H163.668ZM161.488 23.5898V33.5859H160.082V28.2773H158.676V27.0703H160.082V23.5898H161.488ZM157.82 26.2734C157.82 28.043 158.371 29.8359 159.93 30.7266L159.051 31.8281C158.102 31.2656 157.475 30.3105 157.117 29.168C156.748 30.4102 156.104 31.4648 155.125 32.0625L154.223 30.9609C155.793 30 156.379 28.0781 156.379 26.2734V25.6992H154.633V24.5039H159.438V25.6992H157.82V26.2734ZM167.242 24.5156L167.09 30.457H165.59L165.438 24.5156H167.242ZM166.352 33.1055C165.801 33.1055 165.355 32.6602 165.367 32.1211C165.355 31.582 165.801 31.1484 166.352 31.1484C166.867 31.1484 167.324 31.582 167.324 32.1211C167.324 32.6602 166.867 33.1055 166.352 33.1055Z" fill="#37B7C4"/>
<defs>
<linearGradient id="paint0_linear_155_128" x1="1.12248e-05" y1="17.1365" x2="65.0638" y2="17.1365" gradientUnits="userSpaceOnUse">
<stop stop-color="#37B7C4"/>
<stop offset="1" stop-color="#A7D28B"/>
</linearGradient>
<clipPath id="clip0_155_128">
<rect width="69" height="36" fill="white"/>
</clipPath>
</defs>
</svg>
