<svg width="40" height="40" viewBox="0 0 40 40" fill="none" xmlns="http://www.w3.org/2000/svg">
<g clip-path="url(#clip0_170_298)">
<path d="M30.482 9.25607L24.566 8.03614C24.2 7.95763 23.816 7.99386 23.468 8.13881L16.532 10.9954C16.184 11.1403 15.8 11.1766 15.434 11.098L10.274 10.0351C9.098 9.79356 8 10.6995 8 11.9013V28.8716C8 29.7775 8.636 30.5565 9.518 30.7377L15.44 31.9576C15.806 32.0361 16.19 31.9999 16.538 31.855L23.474 28.9984C23.822 28.8535 24.206 28.8172 24.572 28.8957L29.732 29.9586C30.908 30.2002 32.006 29.2943 32.006 28.0925V11.1282C32.006 10.2223 31.37 9.44329 30.488 9.26211L30.482 9.25607ZM16.7 27.247C16.7 27.7483 16.298 28.1529 15.8 28.1529C15.302 28.1529 14.9 27.7483 14.9 27.247V14.8243C14.9 14.323 15.302 13.9184 15.8 13.9184C16.298 13.9184 16.7 14.323 16.7 14.8243V27.247ZM25.1 25.1755C25.1 25.6768 24.698 26.0814 24.2 26.0814C23.702 26.0814 23.3 25.6768 23.3 25.1755V12.7528C23.3 12.2515 23.702 11.8469 24.2 11.8469C24.698 11.8469 25.1 12.2515 25.1 12.7528V25.1755Z" fill="#37B7C4"/>
</g>
<defs>
<clipPath id="clip0_170_298">
<rect width="24" height="24" fill="white" transform="translate(8 8)"/>
</clipPath>
</defs>
</svg>
