<svg width="41" height="40" viewBox="0 0 41 40" fill="none" xmlns="http://www.w3.org/2000/svg">
<g clip-path="url(#clip0_754_145)">
<path d="M16.528 32C16.366 32 16.204 31.9819 16.048 31.9517L10.42 30.7927C9.31 30.5633 8.5 29.5674 8.5 28.4265V12.3159C8.5 11.5855 8.824 10.9034 9.382 10.4446C9.946 9.98588 10.672 9.8048 11.38 9.94967L16.282 10.9577C16.516 11.006 16.756 10.9819 16.978 10.8913L23.566 8.18105C24.01 7.99997 24.49 7.95168 24.958 8.04826L30.586 9.20721C31.696 9.43659 32.506 10.4326 32.506 11.5734V27.6841C32.506 28.4145 32.182 29.0965 31.624 29.5553C31.066 30.0141 30.334 30.1951 29.626 30.0503L24.724 29.0422C24.49 28.9939 24.25 29.0181 24.028 29.1086L17.44 31.8189C17.152 31.9396 16.84 32 16.534 32H16.528ZM10.9 11.1086C10.624 11.1086 10.36 11.2052 10.144 11.3802C9.862 11.6096 9.7 11.9537 9.7 12.3159V28.4265C9.7 29 10.102 29.4949 10.66 29.6096L16.288 30.7686C16.522 30.8169 16.762 30.7927 16.984 30.7022L23.572 27.9919C24.016 27.8108 24.496 27.7625 24.964 27.8591L29.866 28.8672C30.22 28.9396 30.586 28.8491 30.868 28.6197C31.15 28.3903 31.312 28.0462 31.312 27.6841V11.5734C31.312 11 30.91 10.505 30.352 10.3903L24.724 9.23136C24.49 9.18307 24.25 9.20721 24.028 9.29776L17.44 12.008C16.996 12.1891 16.516 12.2374 16.048 12.1408L11.146 11.1328C11.068 11.1147 10.984 11.1086 10.906 11.1086H10.9Z" fill="#21707B"/>
<path d="M24.298 26.7484C23.968 26.7484 23.698 26.4767 23.698 26.1448V11.5492C23.698 11.2172 23.968 10.9456 24.298 10.9456C24.628 10.9456 24.898 11.2172 24.898 11.5492V26.1448C24.898 26.4767 24.628 26.7484 24.298 26.7484Z" fill="#21707B"/>
<path d="M16.702 29.0543C16.372 29.0543 16.102 28.7827 16.102 28.4507V13.8551C16.102 13.5231 16.372 13.2515 16.702 13.2515C17.032 13.2515 17.302 13.5231 17.302 13.8551V28.4507C17.302 28.7827 17.032 29.0543 16.702 29.0543Z" fill="#21707B"/>
</g>
<defs>
<clipPath id="clip0_754_145">
<rect width="24" height="24" fill="white" transform="translate(8.5 8)"/>
</clipPath>
</defs>
</svg>
