<svg width="40" height="40" viewBox="0 0 40 40" fill="none" xmlns="http://www.w3.org/2000/svg">
<g clip-path="url(#clip0_170_344)">
<path d="M25.4 8H14.6C13.274 8 12.2 9.116 12.2 10.484V30.14C12.2 30.842 12.578 31.478 13.19 31.796C13.784 32.102 14.462 32.06 15.008 31.676L19.346 28.646C19.742 28.37 20.258 28.37 20.654 28.646L24.992 31.676C25.2979 31.892 25.646 32 26 32C26.276 32 26.552 31.934 26.816 31.796C27.428 31.478 27.806 30.842 27.806 30.14V10.484C27.806 9.116 26.732 8 25.406 8H25.4Z" fill="#37B7C4"/>
</g>
<defs>
<clipPath id="clip0_170_344">
<rect width="15.6" height="24" fill="white" transform="translate(12.2 8)"/>
</clipPath>
</defs>
</svg>
