<svg width="14" height="21" viewBox="0 0 14 21" fill="none" xmlns="http://www.w3.org/2000/svg">
<path d="M2.15332 0.5H11.8467C12.7551 0.5 13.5 1.24792 13.5 2.17383V19.3721C13.5 19.7993 13.2655 20.1835 12.8857 20.376H12.8848C12.7177 20.4611 12.5479 20.5 12.3799 20.5C12.1634 20.5 11.9498 20.4362 11.7588 20.3047L11.7568 20.3037L7.86523 17.6523V17.6514C7.34049 17.2947 6.6547 17.2948 6.12988 17.6514L6.12891 17.6523L2.2373 20.3037H2.23633C1.9416 20.5059 1.58789 20.5521 1.25391 20.4346L1.1123 20.375C0.733521 20.1823 0.5 19.7986 0.5 19.3721V2.17383C0.5 1.24792 1.24495 0.5 2.15332 0.5Z" fill="white" stroke="#D1D5DB"/>
</svg>
