<svg width="40" height="40" viewBox="0 0 40 40" fill="none" xmlns="http://www.w3.org/2000/svg">
<g clip-path="url(#clip0_754_159)">
<path d="M14 32C13.724 32 13.448 31.934 13.184 31.796C12.572 31.478 12.194 30.842 12.194 30.14V10.484C12.2 9.116 13.274 8 14.6 8H25.4C26.726 8 27.8 9.116 27.8 10.484V30.14C27.8 30.842 27.422 31.478 26.81 31.796C26.216 32.102 25.538 32.06 24.992 31.676L20.654 28.646C20.258 28.37 19.742 28.37 19.346 28.646L15.008 31.676C14.702 31.892 14.354 32 14 32ZM20 27.236C20.468 27.236 20.936 27.38 21.344 27.662L25.682 30.692C25.934 30.866 26.174 30.776 26.258 30.734C26.474 30.62 26.6 30.398 26.6 30.14V10.484C26.6 9.776 26.06 9.2 25.4 9.2H14.6C13.94 9.2 13.4 9.776 13.4 10.484V30.14C13.4 30.398 13.526 30.62 13.742 30.734C13.832 30.782 14.066 30.872 14.318 30.692L18.656 27.662C19.064 27.38 19.532 27.236 20 27.236Z" fill="#21707B"/>
</g>
<defs>
<clipPath id="clip0_754_159">
<rect width="15.6" height="24" fill="white" transform="translate(12.2 8)"/>
</clipPath>
</defs>
</svg>
