<svg width="14" height="21" viewBox="0 0 14 21" fill="none" xmlns="http://www.w3.org/2000/svg">
<path d="M2.1543 0.5H11.8516C12.7606 0.500014 13.5059 1.24811 13.5059 2.17383V19.3721C13.5059 19.7992 13.2706 20.1825 12.8906 20.375L12.8896 20.376C12.7226 20.4611 12.5528 20.5 12.3848 20.5C12.1682 20.5 11.9547 20.4361 11.7637 20.3047L11.7617 20.3037L7.86816 17.6523V17.6514C7.34316 17.2946 6.65684 17.2946 6.13184 17.6514V17.6523L2.23828 20.3037H2.2373C1.90054 20.5346 1.48672 20.5624 1.11328 20.375H1.11426C0.734441 20.1824 0.5 19.799 0.5 19.3721V2.17383C0.5 1.2481 1.24529 0.5 2.1543 0.5Z" fill="url(#paint0_linear_387_1550)" stroke="#21707B"/>
<defs>
<linearGradient id="paint0_linear_387_1550" x1="1.85758e-06" y1="3.392" x2="14.0054" y2="17.3974" gradientUnits="userSpaceOnUse">
<stop stop-color="#A7D28B"/>
<stop offset="1" stop-color="#37B7C4"/>
</linearGradient>
</defs>
</svg>
